<?xml version="1.0" encoding="UTF-8" standalone="no" ?>
<!DOCTYPE svg PUBLIC "-//W3C//DTD SVG 1.1//EN" "http://www.w3.org/Graphics/SVG/1.1/DTD/svg11.dtd">
<svg xmlns="http://www.w3.org/2000/svg" xmlns:xlink="http://www.w3.org/1999/xlink" version="1.1" width="439.7265625" height="134.1843" xml:space="preserve">
<desc>Created with Fabric.js 1.6.0-rc.1</desc>
<defs></defs>
<g style="stroke: none; stroke-width: 1; stroke-dasharray: none; stroke-linecap: butt; stroke-linejoin: miter; stroke-miterlimit: 10; fill: none; fill-rule: nonzero; opacity: 1;" transform="translate(10 10) scale(0.2 0.19)" >
  <path d="M 539.5 0.3 c -13 -6.6 -77.5 95 -144.1 227 c -31.2 61.9 -57.4 119.5 -75 163.9 l -1.1 -0.5 c -2.4 -1.3 -5.4 -0.4 -6.7 2.1 c -1.3 2.4 -0.4 5.4 2.1 6.7 c 0.1 0 0.1 0.1 0.2 0.1 c -2.5 -1.2 -5.4 -0.2 -6.7 2.2 c -1.2 2.4 -0.2 5.4 2.2 6.6 c -2.5 -1.2 -5.4 -0.3 -6.7 2.2 c -1.2 2.5 -0.3 5.4 2.2 6.7 l 36.9 18.6 c 2.5 1.2 5.4 0.3 6.7 -2.2 c 1.2 -2.4 0.3 -5.4 -2.2 -6.7 c 0 0 0 0 0 0 c 2.5 1.2 5.4 0.3 6.7 -2.2 c 1.2 -2.5 0.3 -5.4 -2.2 -6.7 c 2.5 1.2 5.4 0.2 6.7 -2.3 c 1.2 -2.4 0.2 -5.4 -2.2 -6.6 l -1.1 -0.5 c 25.2 -40.5 56 -95.8 87.3 -157.7 C 509.1 119.1 552.5 6.9 539.5 0.3 z" style="stroke: none; stroke-width: 1; stroke-dasharray: none; stroke-linecap: butt; stroke-linejoin: miter; stroke-miterlimit: 10; fill: #f5f6f6; fill-rule: nonzero; opacity: 1;" transform=" matrix(1 0 0 1 0 0) " stroke-linecap="round" />
  <path d="M 306 417.2 c 0 0 -63 -11.4 -89.8 52.9 c -26.8 64.2 -112.6 113.6 -158 55.1 c 0 0 55.3 115 209.6 39.3 c 0 0 -15.6 34.3 -58.5 33.2 c 0 0 202.2 34.1 133.6 -161.9 L 306 417.2 L 306 417.2 z" style="stroke: none; stroke-width: 1; stroke-dasharray: none; stroke-linecap: butt; stroke-linejoin: miter; stroke-miterlimit: 10; fill: #f5f6f7; fill-rule: nonzero; opacity: 1;" transform=" matrix(1 0 0 1 0 0) " stroke-linecap="round" />
</g>
  <g transform="translate(280.36 36.72)">
   <text font-family="ADAMCG PRO" font-size="40" font-weight="normal" style="stroke: none; stroke-width: 1; stroke-dasharray: none; stroke-linecap: butt; stroke-linejoin: miter; stroke-miterlimit: 10; fill: #f5f6f7; fill-rule: nonzero; opacity: 1;" ><tspan x="-149.86" y="8.98" style="stroke: none; stroke-width: 0; stroke-dasharray: none; stroke-linecap: butt; stroke-linejoin: miter; stroke-miterlimit: 4; fill: #f5f6f7; fill-rule: ; opacity: 1;">B</tspan><tspan x="-126.35" y="8.98" style="stroke: none; stroke-width: 0; stroke-dasharray: none; stroke-linecap: butt; stroke-linejoin: miter; stroke-miterlimit: 4; fill: #f5f6f7; fill-rule: ; opacity: 1;">R</tspan><tspan x="-100.72" y="8.98" style="stroke: none; stroke-width: 0; stroke-dasharray: none; stroke-linecap: butt; stroke-linejoin: miter; stroke-miterlimit: 4; fill: #f5f6f7; fill-rule: ; opacity: 1;">U</tspan><tspan x="-73.09" y="8.98" style="stroke: none; stroke-width: 0; stroke-dasharray: none; stroke-linecap: butt; stroke-linejoin: miter; stroke-miterlimit: 4; fill: #f5f6f7; fill-rule: ; opacity: 1;">S</tspan><tspan x="-51.97" y="8.98" style="stroke: none; stroke-width: 0; stroke-dasharray: none; stroke-linecap: butt; stroke-linejoin: miter; stroke-miterlimit: 4; fill: #f5f6f7; fill-rule: ; opacity: 1;">H</tspan><tspan x="-24.67" y="8.98" style="stroke: none; stroke-width: 0; stroke-dasharray: none; stroke-linecap: butt; stroke-linejoin: miter; stroke-miterlimit: 4; fill: #f5f6f7; fill-rule: ; opacity: 1;">S</tspan><tspan x="-3.55" y="8.98" style="stroke: none; stroke-width: 0; stroke-dasharray: none; stroke-linecap: butt; stroke-linejoin: miter; stroke-miterlimit: 4; fill: #f5f6f7; fill-rule: ; opacity: 1;">T</tspan><tspan x="19.8" y="8.98" style="stroke: none; stroke-width: 0; stroke-dasharray: none; stroke-linecap: butt; stroke-linejoin: miter; stroke-miterlimit: 4; fill: #f5f6f7; fill-rule: ; opacity: 1;">R</tspan><tspan x="45.43" y="8.98" style="stroke: none; stroke-width: 0; stroke-dasharray: none; stroke-linecap: butt; stroke-linejoin: miter; stroke-miterlimit: 4; fill: #f5f6f7; fill-rule: ; opacity: 1;">O</tspan><tspan x="79.38" y="8.98" style="stroke: none; stroke-width: 0; stroke-dasharray: none; stroke-linecap: butt; stroke-linejoin: miter; stroke-miterlimit: 4; fill: #f5f6f7; fill-rule: ; opacity: 1;">K</tspan><tspan x="105.49" y="8.98" style="stroke: none; stroke-width: 0; stroke-dasharray: none; stroke-linecap: butt; stroke-linejoin: miter; stroke-miterlimit: 4; fill: #f5f6f7; fill-rule: ; opacity: 1;">E</tspan><tspan x="128.75" y="8.98" style="stroke: none; stroke-width: 0; stroke-dasharray: none; stroke-linecap: butt; stroke-linejoin: miter; stroke-miterlimit: 4; fill: #f5f6f7; fill-rule: ; opacity: 1;">S</tspan></text>
 </g>
  <g transform="translate(280.16 93.5) scale(0.58 0.73)">
   <text font-family="ADAMCG PRO" font-size="40" font-weight="normal" style="stroke: none; stroke-width: 1; stroke-dasharray: none; stroke-linecap: butt; stroke-linejoin: miter; stroke-miterlimit: 10; fill: #f5f6f7; fill-rule: nonzero; opacity: 1;" ><tspan x="-216.25" y="8.98" style="stroke: none; stroke-width: 0; stroke-dasharray: none; stroke-linecap: butt; stroke-linejoin: miter; stroke-miterlimit: 4; fill: #f5f6f7; fill-rule: ; opacity: 1;">C</tspan><tspan x="-189.18" y="8.98" style="stroke: none; stroke-width: 0; stroke-dasharray: none; stroke-linecap: butt; stroke-linejoin: miter; stroke-miterlimit: 4; fill: #f5f6f7; fill-rule: ; opacity: 1;">o</tspan><tspan x="-155.23" y="8.98" style="stroke: none; stroke-width: 0; stroke-dasharray: none; stroke-linecap: butt; stroke-linejoin: miter; stroke-miterlimit: 4; fill: #f5f6f7; fill-rule: ; opacity: 1;">m</tspan><tspan x="-121.13" y="8.98" style="stroke: none; stroke-width: 0; stroke-dasharray: none; stroke-linecap: butt; stroke-linejoin: miter; stroke-miterlimit: 4; fill: #f5f6f7; fill-rule: ; opacity: 1;">m</tspan><tspan x="-87.03" y="8.98" style="stroke: none; stroke-width: 0; stroke-dasharray: none; stroke-linecap: butt; stroke-linejoin: miter; stroke-miterlimit: 4; fill: #f5f6f7; fill-rule: ; opacity: 1;">u</tspan><tspan x="-59.39" y="8.98" style="stroke: none; stroke-width: 0; stroke-dasharray: none; stroke-linecap: butt; stroke-linejoin: miter; stroke-miterlimit: 4; fill: #f5f6f7; fill-rule: ; opacity: 1;">n</tspan><tspan x="-29.88" y="8.98" style="stroke: none; stroke-width: 0; stroke-dasharray: none; stroke-linecap: butt; stroke-linejoin: miter; stroke-miterlimit: 4; fill: #f5f6f7; fill-rule: ; opacity: 1;">i</tspan><tspan x="-19.1" y="8.98" style="stroke: none; stroke-width: 0; stroke-dasharray: none; stroke-linecap: butt; stroke-linejoin: miter; stroke-miterlimit: 4; fill: #f5f6f7; fill-rule: ; opacity: 1;">t</tspan><tspan x="4.26" y="8.98" style="stroke: none; stroke-width: 0; stroke-dasharray: none; stroke-linecap: butt; stroke-linejoin: miter; stroke-miterlimit: 4; fill: #f5f6f7; fill-rule: ; opacity: 1;">y</tspan><tspan x="31.78" y="8.98" style="stroke: none; stroke-width: 0; stroke-dasharray: none; stroke-linecap: butt; stroke-linejoin: miter; stroke-miterlimit: 4; fill: #f5f6f7; fill-rule: ; opacity: 1;"> </tspan><tspan x="43.77" y="8.98" style="stroke: none; stroke-width: 0; stroke-dasharray: none; stroke-linecap: butt; stroke-linejoin: miter; stroke-miterlimit: 4; fill: #f5f6f7; fill-rule: ; opacity: 1;">P</tspan><tspan x="66.19" y="8.98" style="stroke: none; stroke-width: 0; stroke-dasharray: none; stroke-linecap: butt; stroke-linejoin: miter; stroke-miterlimit: 4; fill: #f5f6f7; fill-rule: ; opacity: 1;">r</tspan><tspan x="91.82" y="8.98" style="stroke: none; stroke-width: 0; stroke-dasharray: none; stroke-linecap: butt; stroke-linejoin: miter; stroke-miterlimit: 4; fill: #f5f6f7; fill-rule: ; opacity: 1;">o</tspan><tspan x="125.76" y="8.98" style="stroke: none; stroke-width: 0; stroke-dasharray: none; stroke-linecap: butt; stroke-linejoin: miter; stroke-miterlimit: 4; fill: #f5f6f7; fill-rule: ; opacity: 1;">j</tspan><tspan x="142.56" y="8.98" style="stroke: none; stroke-width: 0; stroke-dasharray: none; stroke-linecap: butt; stroke-linejoin: miter; stroke-miterlimit: 4; fill: #f5f6f7; fill-rule: ; opacity: 1;">e</tspan><tspan x="165.82" y="8.98" style="stroke: none; stroke-width: 0; stroke-dasharray: none; stroke-linecap: butt; stroke-linejoin: miter; stroke-miterlimit: 4; fill: #f5f6f7; fill-rule: ; opacity: 1;">c</tspan><tspan x="192.89" y="8.98" style="stroke: none; stroke-width: 0; stroke-dasharray: none; stroke-linecap: butt; stroke-linejoin: miter; stroke-miterlimit: 4; fill: #f5f6f7; fill-rule: ; opacity: 1;">t</tspan></text>
 </g>
</svg>